<?xml version="1.0" standalone="no"?>
<!DOCTYPE svg PUBLIC "-//W3C//DTD SVG 20010904//EN"
 "http://www.w3.org/TR/2001/REC-SVG-20010904/DTD/svg10.dtd">
<svg version="1.0" xmlns="http://www.w3.org/2000/svg"
 width="900.000000pt" height="900.000000pt" viewBox="0 0 900.000000 900.000000"
 preserveAspectRatio="xMidYMid meet">
<metadata>
Created by potrace 1.10, written by Peter Selinger 2001-2011
</metadata>
<g transform="translate(0.000000,900.000000) scale(0.100000,-0.100000)"
fill="#000000" stroke="none">
<path d="M4286 8401 c-3 -5 -18 -11 -33 -14 -16 -2 -53 -15 -83 -27 -30 -12
-66 -25 -80 -30 -14 -5 -50 -18 -80 -30 -30 -12 -68 -26 -84 -30 -16 -5 -37
-17 -47 -26 -16 -14 -16 -19 -4 -47 12 -30 21 -53 60 -157 39 -105 48 -127 61
-158 8 -18 14 -40 14 -50 0 -9 7 -26 15 -36 8 -11 15 -28 15 -38 0 -9 6 -32
14 -50 13 -32 30 -74 60 -155 8 -21 21 -56 29 -78 8 -22 24 -62 34 -88 17 -45
20 -48 48 -44 30 5 86 23 117 38 30 15 58 11 58 -9 0 -10 7 -28 16 -40 8 -12
14 -32 12 -44 -3 -21 -23 -32 -128 -68 -14 -5 -50 -18 -80 -30 -30 -12 -66
-24 -80 -27 -14 -3 -30 -10 -37 -15 -7 -6 -27 -14 -45 -18 -18 -5 -58 -18 -88
-30 -30 -12 -66 -25 -80 -30 -64 -23 -100 -37 -106 -42 -6 -6 8 -49 46 -148
12 -30 24 -66 27 -80 3 -14 12 -34 19 -45 8 -11 14 -28 14 -38 0 -10 9 -36 21
-58 15 -31 24 -39 37 -34 34 14 118 47 142 55 14 5 50 18 80 30 30 12 66 24
80 27 14 3 34 12 45 19 11 8 29 14 40 14 11 0 29 7 39 15 11 8 28 15 38 15 17
0 58 16 125 48 30 14 34 14 53 -3 11 -10 20 -26 20 -37 0 -10 6 -27 13 -39 10
-17 9 -22 -8 -35 -10 -8 -33 -18 -50 -23 -16 -6 -48 -16 -70 -25 -38 -14 -40
-16 -37 -53 2 -21 8 -43 14 -50 5 -7 14 -27 18 -45 5 -18 18 -58 30 -88 12
-30 25 -66 30 -80 5 -14 18 -50 30 -80 12 -30 25 -66 30 -80 5 -14 18 -50 30
-80 12 -30 25 -66 30 -80 5 -14 18 -50 30 -80 12 -30 25 -69 29 -85 4 -17 13
-39 19 -50 6 -11 13 -32 16 -46 7 -31 37 -42 63 -24 10 6 29 15 43 18 14 3 50
15 80 27 30 12 66 25 80 30 14 5 43 16 65 24 22 8 63 23 90 34 47 17 50 20 49
53 -1 19 -11 59 -23 89 -12 30 -26 66 -31 80 -5 14 -18 50 -30 80 -12 30 -25
66 -30 80 -5 14 -18 50 -30 80 -12 30 -24 66 -27 80 -3 14 -12 34 -19 45 -8
11 -14 29 -14 40 0 11 -6 29 -14 40 -7 11 -16 31 -19 45 -3 14 -12 43 -21 65
-8 22 -23 62 -33 89 -24 66 -40 74 -95 52 -93 -39 -104 -42 -120 -38 -10 2
-21 16 -24 30 -3 15 -10 37 -16 49 -14 28 2 49 46 62 17 5 56 19 86 31 119 46
136 52 158 57 21 5 23 10 19 42 -2 20 -14 61 -26 91 -13 30 -26 66 -31 80 -5
14 -18 50 -30 80 -12 30 -26 70 -31 88 -6 17 -15 32 -21 32 -17 0 -79 -21
-110 -36 -14 -8 -33 -14 -41 -14 -9 0 -28 -6 -44 -14 -31 -15 -87 -35 -119
-43 -15 -3 -23 3 -33 24 -25 54 -30 81 -16 93 15 12 106 49 143 57 33 8 31 17
-34 188 -9 22 -18 51 -21 65 -3 14 -12 34 -19 45 -8 11 -14 29 -14 40 0 11 -6
29 -14 40 -7 11 -16 31 -19 45 -3 14 -15 50 -27 80 -12 30 -25 66 -30 80 -5
14 -18 50 -30 80 -12 30 -25 66 -30 80 -5 14 -18 50 -30 80 -12 30 -24 65 -27
78 -4 15 -13 22 -29 22 -12 0 -25 -4 -28 -9z"/>
<path d="M3630 6920 c-20 -3 -42 -10 -50 -15 -7 -4 -30 -12 -49 -16 -43 -9
-97 -27 -133 -45 -14 -8 -33 -14 -41 -14 -9 0 -28 -6 -44 -14 -15 -7 -45 -21
-66 -30 -72 -30 -103 -44 -207 -96 -58 -28 -118 -60 -135 -71 -16 -10 -39 -23
-50 -28 -11 -5 -37 -21 -58 -35 -21 -14 -40 -26 -42 -26 -10 0 -286 -198 -305
-219 -3 -3 -32 -28 -65 -56 -86 -71 -271 -255 -330 -327 -27 -34 -57 -69 -66
-78 -35 -37 -183 -240 -224 -308 -6 -9 -22 -35 -36 -57 -14 -22 -29 -47 -32
-55 -4 -8 -17 -31 -28 -50 -24 -38 -112 -214 -137 -270 -8 -19 -19 -44 -25
-54 -5 -11 -13 -31 -17 -45 -5 -14 -18 -51 -30 -81 -137 -357 -207 -758 -204
-1172 3 -361 33 -618 101 -873 21 -79 80 -259 92 -282 5 -10 17 -38 27 -63 40
-103 150 -315 214 -410 128 -192 210 -292 361 -442 113 -112 298 -265 394
-325 192 -121 398 -222 560 -274 33 -11 74 -24 90 -30 17 -6 46 -14 65 -19 19
-4 55 -12 80 -18 341 -82 782 -80 1110 5 225 58 309 89 521 193 70 34 157 82
194 106 37 24 69 44 71 44 3 0 60 41 127 92 139 105 362 322 457 447 92 119
139 184 147 201 4 8 19 33 34 55 55 84 145 257 189 365 12 30 28 69 35 85 16
38 34 91 45 130 5 17 13 44 18 60 24 70 64 227 70 277 2 21 10 42 17 48 8 7
124 9 346 8 l334 -3 -3 -115 c-1 -63 -9 -153 -18 -200 -22 -121 -45 -230 -56
-265 -6 -16 -14 -46 -18 -65 -8 -33 -15 -55 -46 -142 -50 -137 -113 -275 -179
-393 -19 -33 -38 -67 -42 -75 -10 -21 -146 -221 -169 -250 -254 -312 -531
-550 -809 -695 -27 -14 -57 -30 -65 -35 -36 -22 -210 -100 -222 -100 -8 0 -22
-6 -33 -14 -11 -7 -31 -16 -45 -19 -14 -3 -59 -17 -100 -31 -132 -45 -167 -56
-185 -56 -10 0 -41 -6 -69 -14 -90 -26 -438 -75 -536 -77 -25 0 -54 -4 -65 -8
-60 -24 221 -28 450 -6 284 26 613 93 753 151 18 8 39 14 47 14 8 0 31 7 52
16 21 9 52 22 68 29 17 7 55 23 85 35 63 25 269 127 350 172 347 196 688 494
957 838 21 27 128 176 140 196 134 214 243 425 308 594 9 25 23 60 31 78 8 18
14 39 14 47 0 8 6 29 14 47 23 54 67 213 90 328 29 141 45 245 57 365 6 66 12
125 14 131 2 6 -2 17 -8 23 -14 14 -3803 16 -3812 2 -9 -16 15 -156 55 -311 6
-25 15 -61 20 -80 5 -19 15 -52 22 -72 l13 -38 802 0 c493 0 804 -4 808 -9 3
-6 -1 -38 -9 -73 -8 -35 -22 -99 -31 -143 -9 -44 -23 -95 -31 -113 -8 -18 -14
-39 -14 -47 0 -13 -7 -30 -45 -120 -18 -42 -84 -176 -98 -200 -33 -56 -84
-133 -102 -154 -143 -174 -283 -308 -445 -430 -100 -75 -183 -119 -305 -164
-91 -33 -111 -39 -135 -44 -14 -3 -45 -11 -70 -18 -113 -32 -374 -65 -522 -65
-260 0 -502 48 -703 140 -33 15 -67 31 -75 34 -8 3 -28 15 -45 26 -16 11 -39
24 -50 30 -51 26 -162 108 -224 165 -117 109 -219 216 -257 272 -14 21 -28 40
-32 43 -10 7 -112 163 -156 239 -137 237 -266 581 -305 818 -5 28 -14 66 -19
85 -6 18 -16 74 -21 123 -6 50 -15 115 -20 145 -5 30 -10 98 -11 150 -2 90
-15 181 -20 135 -1 -20 -1 -20 -10 0 -13 30 -12 352 1 377 6 11 13 53 16 94 3
41 10 77 14 80 5 3 9 -6 9 -20 0 -14 4 -26 8 -26 8 0 24 48 48 145 7 28 20 79
29 115 9 36 20 85 25 110 4 25 12 56 18 70 32 83 55 180 42 180 -4 0 -11 -7
-14 -16 -3 -8 -10 -12 -16 -9 -15 9 -12 41 5 55 8 7 15 23 15 36 0 12 4 25 9
28 5 3 12 18 16 33 7 32 90 204 132 275 52 87 117 193 125 203 5 5 37 49 72
96 64 85 249 279 267 279 15 0 10 -18 -8 -28 -10 -6 -14 -16 -10 -26 9 -23 17
-20 58 17 56 50 90 79 139 117 25 19 52 41 60 49 17 16 126 97 210 156 126 88
359 217 505 279 105 45 126 58 119 75 -20 48 -47 120 -55 148 -16 53 -39 71
-79 63z m-1600 -1912 c0 -16 -3 -19 -11 -11 -6 6 -8 16 -5 22 11 17 16 13 16
-11z"/>
<path d="M5325 6524 c-33 -2 -80 -6 -104 -10 -42 -5 -43 -6 -38 -37 2 -18 15
-57 27 -87 12 -30 24 -66 27 -80 3 -14 12 -34 19 -45 8 -11 14 -29 14 -40 0
-11 6 -29 14 -40 7 -11 16 -31 19 -45 10 -46 38 -115 50 -122 7 -4 37 -8 67
-8 73 -1 305 -26 319 -34 6 -4 32 -11 59 -16 44 -7 61 -12 157 -47 75 -27 174
-74 220 -104 17 -10 39 -23 50 -29 105 -53 316 -246 424 -389 81 -107 141
-203 141 -227 0 -2 -217 -4 -483 -4 l-483 0 -61 83 c-81 108 -134 167 -273
304 -126 124 -126 124 -219 97 -31 -8 -81 -22 -111 -31 -118 -33 -244 -86
-248 -105 -2 -8 25 -44 59 -79 34 -35 82 -91 107 -124 25 -33 49 -62 52 -65 6
-6 100 -136 115 -161 86 -140 121 -203 169 -301 32 -65 61 -120 66 -123 5 -3
485 -5 1067 -5 972 -1 1058 1 1061 16 4 16 -19 126 -40 194 -6 19 -15 51 -19
70 -4 19 -13 51 -19 70 -32 88 -39 108 -55 150 -42 107 -129 286 -190 388
-136 227 -383 489 -585 620 -89 58 -218 126 -340 179 -19 9 -48 22 -63 29 -16
8 -35 14 -44 14 -8 0 -27 6 -41 14 -15 8 -52 21 -82 29 -30 9 -80 23 -111 31
-31 9 -66 16 -78 16 -12 0 -50 6 -84 14 -103 24 -409 46 -532 40z"/>
<path d="M4360 6305 c-14 -7 -71 -36 -127 -64 -123 -61 -129 -64 -211 -118
-35 -24 -65 -43 -68 -43 -2 0 -32 -21 -66 -46 -240 -174 -392 -322 -581 -563
-108 -136 -241 -366 -312 -537 -21 -49 -43 -102 -50 -119 -16 -37 -34 -91 -45
-130 -5 -16 -13 -43 -19 -60 -25 -75 -63 -252 -86 -402 -21 -142 -21 -551 0
-688 19 -122 42 -233 61 -301 8 -28 14 -58 14 -67 0 -9 6 -31 14 -49 7 -18 21
-58 30 -88 68 -221 283 -625 374 -701 36 -31 146 -65 317 -99 145 -29 515 -51
515 -31 0 6 -44 55 -99 109 -54 53 -120 126 -147 162 -26 36 -51 67 -54 70 -5
4 -52 78 -87 135 -22 37 -111 220 -127 263 -64 168 -84 239 -123 442 -25 132
-25 609 0 713 10 38 17 80 17 94 0 15 6 49 14 77 8 28 22 80 31 116 10 36 22
76 27 90 6 14 14 39 19 55 47 176 231 523 368 695 20 24 45 56 56 70 42 53
273 278 330 321 81 62 182 130 229 154 21 11 40 26 43 33 8 19 -6 65 -68 222
-11 30 -23 66 -26 80 -3 14 -12 34 -19 45 -8 11 -14 28 -14 38 0 10 -6 31 -14
45 -7 15 -18 41 -22 57 -8 24 -15 30 -39 32 -17 1 -41 -4 -55 -12z"/>
<path d="M2655 5999 c-10 -15 3 -25 16 -12 7 7 7 13 1 17 -6 3 -14 1 -17 -5z"/>
<path d="M4185 4227 c-39 -8 -59 -20 -96 -58 -40 -42 -47 -55 -53 -103 -22
-174 54 -266 219 -266 44 0 90 6 111 15 l35 14 -3 103 -3 103 -54 3 c-78 4
-103 -4 -99 -31 2 -18 11 -23 48 -27 45 -5 45 -5 48 -47 2 -33 -1 -44 -20 -57
-55 -39 -166 -4 -193 60 -29 70 -14 161 34 201 21 18 39 22 97 23 52 0 75 -4
84 -15 12 -14 15 -14 31 1 24 21 24 37 2 56 -16 14 -111 40 -131 37 -4 -1 -29
-6 -57 -12z"/>
<path d="M5825 4227 c-61 -18 -94 -45 -105 -86 -17 -63 9 -114 73 -143 21 -10
51 -18 67 -18 16 0 45 -8 65 -17 27 -13 35 -23 35 -44 0 -57 -86 -76 -180 -39
l-51 20 -9 -26 c-6 -14 -10 -27 -10 -29 0 -3 20 -14 44 -25 63 -28 172 -28
221 1 59 35 81 103 52 157 -17 30 -79 62 -119 62 -38 0 -97 27 -112 52 -7 12
-6 24 3 42 19 35 83 44 150 22 65 -21 71 -20 71 7 0 33 -26 53 -88 66 -60 13
-54 13 -107 -2z"/>
<path d="M6215 4228 c-59 -16 -93 -44 -105 -86 -17 -64 9 -115 73 -144 21 -10
51 -18 67 -18 16 0 45 -8 65 -17 27 -13 35 -23 35 -44 0 -57 -86 -76 -180 -39
l-51 20 -9 -26 c-6 -14 -10 -27 -10 -29 0 -3 20 -14 44 -25 63 -28 172 -28
221 1 59 35 81 103 52 157 -17 30 -79 62 -119 62 -38 0 -97 27 -112 52 -7 12
-6 24 3 42 19 35 83 44 150 22 65 -21 71 -20 71 7 0 33 -26 53 -88 66 -60 12
-53 12 -107 -1z"/>
<path d="M4630 4210 c-11 -11 -20 -24 -20 -30 0 -5 -14 -40 -31 -77 -17 -38
-42 -93 -56 -123 -14 -30 -33 -73 -44 -96 -27 -56 -25 -84 4 -84 27 0 47 20
68 65 l14 30 105 0 105 0 14 -30 c21 -45 41 -65 68 -65 32 0 30 30 -6 105 -16
33 -40 85 -54 115 -88 194 -97 210 -129 210 -10 0 -27 -9 -38 -20z m60 -110
c4 -8 14 -30 23 -48 9 -19 17 -47 17 -63 0 -29 0 -29 -60 -29 l-60 0 0 34 c0
19 4 38 10 41 5 3 14 24 20 46 11 41 35 51 50 19z"/>
<path d="M4951 4216 c-8 -9 -11 -74 -9 -212 l3 -199 173 -1 c163 -2 175 0 193
19 10 11 19 29 19 39 0 9 9 22 19 28 22 11 191 14 206 2 6 -4 20 -25 31 -47
18 -32 27 -40 50 -40 25 0 29 4 26 25 -1 14 -16 54 -33 90 -32 67 -67 141
-113 242 -19 42 -33 59 -52 64 -28 7 -59 -15 -70 -50 -7 -23 -49 -115 -95
-211 -16 -33 -29 -65 -29 -70 -1 -6 -10 -21 -21 -34 -18 -22 -21 -23 -37 -7
-14 12 -39 16 -100 16 -78 0 -82 1 -83 23 0 12 0 88 1 169 1 137 0 147 -19
157 -27 15 -46 14 -60 -3z m525 -113 c3 -10 12 -32 20 -48 8 -17 16 -44 17
-60 l2 -30 -60 0 c-55 0 -60 2 -63 23 -2 13 4 34 12 47 9 13 16 31 16 39 0 16
26 46 41 46 5 0 12 -8 15 -17z"/>
<path d="M6512 4222 c-9 -7 -12 -56 -10 -213 l3 -204 29 -3 c16 -2 32 0 37 5
4 4 9 97 10 207 1 158 -1 200 -12 207 -17 11 -40 11 -57 1z"/>
<path d="M6823 4215 c-13 -9 -23 -21 -23 -28 0 -6 -13 -39 -29 -72 -16 -33
-41 -87 -56 -120 -15 -33 -35 -78 -46 -100 -10 -22 -20 -51 -21 -65 -3 -22 1
-25 26 -25 25 0 33 7 54 48 l25 47 98 0 c100 0 129 -10 129 -46 0 -21 37 -54
60 -54 34 0 34 27 2 93 -17 34 -43 91 -59 126 -90 206 -111 231 -160 196z m49
-112 c10 -9 18 -23 18 -32 0 -9 7 -27 16 -39 8 -12 14 -32 12 -45 -3 -20 -9
-22 -63 -22 l-60 0 2 30 c1 16 9 43 17 60 8 16 17 38 20 48 7 21 14 21 38 0z"/>
<path d="M7312 4218 c-8 -8 -12 -49 -12 -119 0 -130 8 -142 70 -110 59 31 101
28 128 -9 28 -38 28 -52 -4 -89 -30 -36 -73 -41 -129 -14 -27 13 -40 15 -53 7
-54 -35 16 -84 119 -84 104 0 154 46 154 143 0 55 -3 61 -38 94 -37 33 -41 35
-105 31 l-67 -3 0 45 0 45 70 3 c100 3 115 8 115 36 0 13 -7 27 -16 30 -30 11
-219 7 -232 -6z"/>
</g>
</svg>
